HIERARCHY
ROOT RootJoint
{
    OFFSET   0.000000   0.000000   0.000000
    CHANNELS 6 Xposition Yposition Zposition Xrotation Yrotation Zrotation
    JOINT pelvis_lowerback
    {
        OFFSET   0.000000   0.093605   0.000000
        CHANNELS 3 Xrotation Yrotation Zrotation
        JOINT lowerback_torso
        {
            OFFSET   0.000000   0.100000   0.000000
            CHANNELS 3 Xrotation Yrotation Zrotation
            JOINT torso_head
            {
                OFFSET   0.000000   0.282350   0.000000
                CHANNELS 3 Xrotation Yrotation Zrotation
                End Site
                {
                    OFFSET   0.000000   0.192650   0.000000
                }
            }
            JOINT rTorso_Clavicle
            {
                OFFSET  -0.001000   0.157500   0.000000
                CHANNELS 3 Xrotation Yrotation Zrotation
                JOINT rShoulder
                {
                    OFFSET  -0.117647   0.000000   0.000000
                    CHANNELS 3 Xrotation Yrotation Zrotation
                    JOINT rElbow
                    {
                        OFFSET  -0.245000   0.000000   0.000000
                        CHANNELS 3 Xrotation Yrotation Zrotation
                        JOINT rWrist
                        {
                            OFFSET  -0.240000   0.000000   0.000000
                            CHANNELS 3 Xrotation Yrotation Zrotation
                            End Site
                            {
                                OFFSET  -0.116353  -0.002500   0.000000
                            }
                        }
                    }
                }
            }
            JOINT lTorso_Clavicle
            {
                OFFSET   0.001000   0.157500   0.000000
                CHANNELS 3 Xrotation Yrotation Zrotation
                JOINT lShoulder
                {
                    OFFSET   0.117647   0.000000   0.000000
                    CHANNELS 3 Xrotation Yrotation Zrotation
                    JOINT lElbow
                    {
                        OFFSET   0.245000   0.000000   0.000000
                        CHANNELS 3 Xrotation Yrotation Zrotation
                        JOINT lWrist
                        {
                            OFFSET   0.240000   0.000000   0.000000
                            CHANNELS 3 Xrotation Yrotation Zrotation
                            End Site
                            {
                                OFFSET   0.116353  -0.002500   0.000000
                            }
                        }
                    }
                }
            }
        }
    }
    JOINT rHip
    {
        OFFSET  -0.100000  -0.051395   0.000000
        CHANNELS 3 Xrotation Yrotation Zrotation
        JOINT rKnee
        {
            OFFSET   0.000000  -0.410000   0.000000
            CHANNELS 3 Xrotation Yrotation Zrotation
            JOINT rAnkle
            {
                OFFSET   0.000000  -0.390000   0.000000
                CHANNELS 3 Xrotation Yrotation Zrotation
                JOINT rToeJoint
                {
                    OFFSET   0.000000  -0.050000   0.130000
                    CHANNELS 3 Xrotation Yrotation Zrotation
                    End Site
                    {
                        OFFSET  -0.010000   0.002000   0.060000
                    }
                }
            }
        }
    }
    JOINT lHip
    {
        OFFSET   0.100000  -0.051395   0.000000
        CHANNELS 3 Xrotation Yrotation Zrotation
        JOINT lKnee
        {
            OFFSET   0.000000  -0.410000   0.000000
            CHANNELS 3 Xrotation Yrotation Zrotation
            JOINT lAnkle
            {
                OFFSET   0.000000  -0.390000   0.000000
                CHANNELS 3 Xrotation Yrotation Zrotation
                JOINT lToeJoint
                {
                    OFFSET   0.000000  -0.050000   0.130000
                    CHANNELS 3 Xrotation Yrotation Zrotation
                    End Site
                    {
                        OFFSET   0.010000   0.002000   0.060000
                    }
                }
            }
        }
    }
}
MOTION
Frames: 8
Frame Time:   0.008333
 -2.376719   0.925631   3.975860   0.000000   0.000000   0.000000   0.000000   0.000000   0.000000   0.000000   0.000000   0.000000   0.000000   0.000000   0.000000   0.000000   0.000000   0.000000   0.000000   0.000000   0.000000   0.000000   0.000000   0.000000   0.000000   0.000000   0.000000   0.000000   0.000000   0.000000   0.000000   0.000000   0.000000   0.000000   0.000000   0.000000   0.000000   0.000000   0.000000   0.000000   0.000000   0.000000   0.000000   0.000000   0.000000   0.000000   0.000000   0.000000   0.000000   0.000000   0.000000   0.000000   0.000000   0.000000   0.000000   0.000000   0.000000   0.000000   0.000000   0.000000   0.000000   0.000000   0.000000
 -2.376416   0.925910   3.975236  -0.117284  -0.552243   0.453088   0.317410   0.146287  -0.438804   0.019391  -0.080048  -0.206437  -0.104605  -0.196333   0.223362   0.061873  -0.354932  -0.017969   0.956347   0.239032   2.328299   0.064358   3.400819  -0.038281   0.189284  -1.310653  -2.457155   0.366938   0.669652   0.090942   1.377564   0.401183  -2.082895   0.035176  -1.828511   0.031757   0.218832   0.412899   2.639047  -0.679440   0.277722  -0.645654   2.069058   0.003468  -0.005141  -1.162262   0.369559   0.378035  -0.102738   0.000160  -0.000081  -0.161244  -0.166157  -0.417788   0.955389  -0.000346  -0.005997   0.047593   0.182012   0.066962   0.013230  -0.000012  -0.000062
 -2.376158   0.926394   3.974622  -0.318533  -1.286496   0.967425   0.659567   0.309471  -0.923362   0.124901  -0.091032  -0.491316  -0.166331  -0.402690   0.429538   0.123102  -0.566430   0.553402   1.871478   0.682157   5.128075   0.148084   6.716218  -0.067689   0.430043  -1.560853  -4.306184   0.735724   1.325541  -0.471512   2.685837   0.732405  -4.545225   0.079694  -3.571513   0.055163   0.502218   0.432827   4.644542  -1.301686   0.543408  -1.433015   4.228006   0.007511  -0.013749  -2.236554   0.708383   0.738486  -0.187337   0.000186   0.000051  -0.243158  -0.348543  -0.799326   1.993800  -0.001812  -0.013084   0.102669   0.347043   0.127186   0.048059  -0.000075  -0.000278
 -2.376023   0.926740   3.974060  -0.522996  -2.092892   1.472242   0.984465   0.488190  -1.413716   0.239821  -0.058305  -0.809238  -0.217467  -0.599497   0.619960   0.178288  -0.675224   1.490851   2.739372   1.243286   8.224556   0.230209   9.842698  -0.087386   0.678593  -1.461732  -5.475714   1.091952   1.903863  -1.460083   3.917172   0.963445  -7.191741   0.122414  -5.206649   0.070863   0.782632   0.333902   5.897998  -1.868239   0.792665  -2.261966   6.269758   0.010787  -0.022314  -3.238718   1.015396   1.080235  -0.259478   0.000157   0.000230  -0.308163  -0.524393  -1.077348   2.992821  -0.004048  -0.018925   0.155274   0.499880   0.183304   0.078042  -0.000147  -0.000438
 -2.376025   0.926705   3.973568  -0.711665  -2.916169   1.952423   1.288190   0.670995  -1.904643   0.344920  -0.004135  -1.144805  -0.266181  -0.784310   0.797212   0.230088  -0.722108   2.644646   3.561504   1.892792  11.520554   0.301299  12.774288  -0.099580   0.921107  -1.241579  -6.129142   1.434589   2.408419  -2.706655   5.074013   1.096867  -9.901782   0.158443  -6.740715   0.080778   1.054948   0.171413   6.579217  -2.386112   1.029600  -3.103296   8.176510   0.013132  -0.029436  -4.176398   1.294610   1.403708  -0.331207   0.000103   0.000421  -0.373020  -0.690314  -1.250700   3.930495  -0.006572  -0.023020   0.203965   0.642618   0.236224   0.100463  -0.000202  -0.000514
 -2.376085   0.926160   3.973080  -0.895574  -3.780845   2.392404   1.593758   0.869460  -2.376558   0.444841   0.074989  -1.487737  -0.314009  -0.956642   0.961413   0.277774  -0.723284   3.911953   4.336015   2.618972  14.946886   0.357963  15.517516  -0.106516   1.151773  -0.979269  -6.428420   1.762581   2.853685  -4.104405   6.157709   1.147079 -12.600819   0.185949  -8.178226   0.086589   1.316902  -0.027232   6.859654  -2.862317   1.259340  -3.938707   9.959679   0.014690  -0.035585  -5.053261   1.549755   1.709961  -0.399945   0.000034   0.000618  -0.491326  -0.907458  -1.419733   4.663323  -0.007839  -0.025121   0.157137   0.697809   0.238800  -1.092289   0.003594   0.010103
 -2.376220   0.925139   3.972615  -1.077647  -4.664350   2.798254   1.895782   1.071652  -2.842924   0.544844   0.169610  -1.817221  -0.358326  -1.117603   1.109779   0.327962  -0.693749   5.298194   5.023652   3.371474  18.307182   0.397863  18.084137  -0.108464   1.368953  -0.693829  -6.394899   2.075326   3.249592  -5.584441   7.169687   1.126887 -15.241830   0.204891  -9.524392   0.089312   1.568153  -0.247906   6.866420  -3.329421   1.546606  -4.694647  11.529752   0.014551  -0.038739  -5.939414   1.865145   2.023128  -1.294611  -0.000244   0.003445  -0.599326  -1.155638  -1.609820   5.404330  -0.008680  -0.027181   0.033628   0.698721   0.210767  -2.753625   0.006426   0.024416
 -2.376676   0.923244   3.972054  -1.135214  -5.519014   3.059000   2.129665   1.172179  -3.251186   0.515584   0.294767  -2.053092  -0.476202  -1.287861   1.270734   0.484236  -0.668949   6.270758   6.058493   4.234585  21.387224   0.422468  20.725001  -0.119857   1.622895  -0.369679  -5.529877   2.325648   3.617656  -6.449074   7.701247   1.162118 -17.991886   0.215977 -10.942870   0.085177   1.732942  -0.414487   6.147927  -4.064596   1.728772  -5.038657  12.954929   0.010648  -0.040897  -6.319762   2.495578   2.414082  -4.760851   0.009111   0.007732  -0.593821  -1.248322  -1.646630   5.758203  -0.008066  -0.024543  -0.695831   0.903090   0.263507  -2.905396   0.005527   0.020515
